# xmcd CD database file
#
# Track frame offsets:
#	150
#	15181
#	33133
#	47245
#	66512
#	77332
#	93445
#	105793
#	117927
#	137305
#	155332
#	170508
#	187138
#
# Disc length: 2683 seconds
#
# Revision: 0
# Processed by: cddbd v1.5.2PL0 Copyright (c) Steve Scherf et al.
# Submitted via: CDex 1.51
#
DISCID=940a790d
DTITLE=Orville Grant - I believe I'm in love with you
DYEAR=2007
DGENRE=Country
TTITLE0=I believe I'm in love with you
TTITLE1=New moon over my shoulder
TTITLE2=Calling you
TTITLE3=Paceful easy feeling
TTITLE4=If the jukebox took teardrops
TTITLE5=Jacksonville
TTITLE6=River of tears
TTITLE7=Route 66
TTITLE8=Margaritaville
TTITLE9=Every moment
TTITLE10=Gold watch and chain
TTITLE11=Stars on the water
TTITLE12=Lucky one
EXTD=YEAR: 2007
EXTT0=
EXTT1=
EXTT2=
EXTT3=
EXTT4=
EXTT5=
EXTT6=
EXTT7=
EXTT8=
EXTT9=
EXTT10=
EXTT11=
EXTT12=
PLAYORDER=
